<svg xmlns="http://www.w3.org/2000/svg" xmlns:xlink="http://www.w3.org/1999/xlink" width="2000" zoomAndPan="magnify" viewBox="0 0 1500 1499.999933" height="2000" preserveAspectRatio="xMidYMid meet" version="1.0"><defs><g/><clipPath id="a09a41d9a5"><path d="M 1176 1111 L 1291 1111 L 1291 1226 L 1176 1226 Z M 1176 1111 " clip-rule="nonzero"/></clipPath><clipPath id="b47e729048"><path d="M 1218.242188 1111.574219 L 1290.339844 1153.199219 L 1248.714844 1225.296875 L 1176.617188 1183.671875 Z M 1218.242188 1111.574219 " clip-rule="nonzero"/></clipPath><clipPath id="37056062fc"><path d="M 1218.242188 1111.574219 L 1290.15625 1153.09375 L 1248.636719 1225.007812 L 1176.722656 1183.488281 Z M 1218.242188 1111.574219 " clip-rule="nonzero"/></clipPath><clipPath id="ab48c61d59"><path d="M 10.136719 196.109375 L 1489.886719 196.109375 L 1489.886719 1467.792969 L 10.136719 1467.792969 Z M 10.136719 196.109375 " clip-rule="nonzero"/></clipPath><clipPath id="147eb43af1"><path d="M 1489.886719 831.953125 L 1119.941406 1467.792969 L 380.054688 1467.792969 L 10.113281 831.953125 L 380.054688 196.109375 L 1119.941406 196.109375 Z M 1489.886719 831.953125 " clip-rule="nonzero"/></clipPath></defs><path stroke-linecap="butt" transform="matrix(0.75, 0.000000000000000022, -0.000000000000000022, 0.75, 387.041923, 132.749969)" fill="none" stroke-linejoin="miter" d="M 12.501395 12.500043 L 955.386893 12.500043 " stroke="#38b6ff" stroke-width="25" stroke-opacity="1" stroke-miterlimit="4"/><path stroke-linecap="round" transform="matrix(0.75, 0.000000000000000022, -0.000000000000000022, 0.75, 387.041923, 132.749969)" fill="none" stroke-linejoin="round" d="M 62.501399 -24.99996 L 12.501395 12.500043 L 62.501399 50.000046 " stroke="#38b6ff" stroke-width="25" stroke-opacity="1" stroke-miterlimit="4"/><path stroke-linecap="round" transform="matrix(0.75, 0.000000000000000022, -0.000000000000000022, 0.75, 387.041923, 132.749969)" fill="none" stroke-linejoin="round" d="M 905.386889 -24.99996 L 955.386893 12.500043 L 905.386889 50.000046 " stroke="#38b6ff" stroke-width="25" stroke-opacity="1" stroke-miterlimit="4"/><g clip-path="url(#a09a41d9a5)"><g clip-path="url(#b47e729048)"><g clip-path="url(#37056062fc)"><path stroke-linecap="butt" transform="matrix(0.649519, 0.375, -0.375, 0.649519, 1218.2418, 1111.573468)" fill="none" stroke-linejoin="miter" d="M 0.000947292 0.000608541 L 110.71986 0.000520214 L 110.719948 110.719433 L 0.00103562 110.719521 Z M 0.000947292 0.000608541 " stroke="#a6a6a6" stroke-width="20" stroke-opacity="1" stroke-miterlimit="4"/></g></g></g><path stroke-linecap="butt" transform="matrix(0.649519, 0.375, -0.375, 0.649519, 745.959233, 830.710876)" fill="none" stroke-linejoin="miter" d="M 0.000808509 12.496856 L 838.575131 12.5021 " stroke="#8c52ff" stroke-width="25" stroke-opacity="1" stroke-miterlimit="4"/><path stroke-linecap="butt" transform="matrix(0.374833, -0.649615, 0.649615, 0.374833, 378.920509, 1456.300871)" fill="none" stroke-linejoin="miter" d="M 0.00111291 12.496836 L 968.317907 12.502679 " stroke="#ff3131" stroke-width="25" stroke-opacity="1" stroke-miterlimit="4"/><path stroke-linecap="butt" transform="matrix(0.650582, -0.373153, 0.373153, 0.650582, 22.923412, 823.820717)" fill="none" stroke-linejoin="miter" d="M -0.00227236 12.498905 L 1670.611679 12.499108 " stroke="#ff914d" stroke-width="25" stroke-opacity="1" stroke-miterlimit="4"/><path stroke-linecap="butt" transform="matrix(0.75, 0, 0, 0.75, 27.587972, 822.578525)" fill="none" stroke-linejoin="miter" d="M 0.00249608 12.499468 L 1923.893287 12.499468 " stroke="#00bf63" stroke-width="25" stroke-opacity="1" stroke-miterlimit="4"/><g fill="#00bf63" fill-opacity="1"><g transform="translate(689.285367, 796.274199)"><g><path d="M 44.734375 0.203125 C 37.585938 0.441406 31.203125 -1.078125 25.578125 -4.359375 C 19.960938 -7.648438 15.476562 -12.753906 12.125 -19.671875 C 8.78125 -26.585938 6.9375 -35.179688 6.59375 -45.453125 C 6.238281 -55.785156 7.535156 -64.515625 10.484375 -71.640625 C 13.441406 -78.773438 17.691406 -84.171875 23.234375 -87.828125 C 28.785156 -91.492188 35.273438 -93.457031 42.703125 -93.71875 C 48.335938 -93.90625 53.25 -93.097656 57.4375 -91.296875 C 61.625 -89.492188 65.207031 -86.59375 68.1875 -82.59375 L 69.90625 -83.0625 L 68.328125 -129.21875 L 91.03125 -129.984375 L 95.34375 -3.234375 L 72.640625 -2.46875 L 72.234375 -14.203125 L 70.5 -14.46875 C 68.144531 -10.113281 64.820312 -6.632812 60.53125 -4.03125 C 56.238281 -1.425781 50.972656 -0.015625 44.734375 0.203125 Z M 51.46875 -19.3125 C 57.863281 -19.53125 62.835938 -21.984375 66.390625 -26.671875 C 69.953125 -31.359375 71.578125 -38.347656 71.265625 -47.640625 C 70.941406 -56.929688 68.84375 -63.804688 64.96875 -68.265625 C 61.101562 -72.734375 55.972656 -74.859375 49.578125 -74.640625 C 42.898438 -74.410156 37.878906 -72.007812 34.515625 -67.4375 C 31.148438 -62.875 29.628906 -55.804688 29.953125 -46.234375 C 30.273438 -36.722656 32.269531 -29.800781 35.9375 -25.46875 C 39.613281 -21.132812 44.789062 -19.082031 51.46875 -19.3125 Z M 51.46875 -19.3125 "/></g></g></g><g fill="#38b6ff" fill-opacity="1"><g transform="translate(702.298797, 114.29997)"><g><path d="M 35.28125 1.71875 C 29.476562 1.71875 24.441406 0.65625 20.171875 -1.46875 C 15.910156 -3.601562 12.628906 -6.734375 10.328125 -10.859375 C 8.035156 -14.992188 6.890625 -19.960938 6.890625 -25.765625 C 6.890625 -31.117188 8.035156 -35.613281 10.328125 -39.25 C 12.628906 -42.882812 16.1875 -45.863281 21 -48.1875 C 25.8125 -50.519531 32.101562 -52.3125 39.875 -53.5625 C 45.28125 -54.4375 49.390625 -55.394531 52.203125 -56.4375 C 55.023438 -57.476562 56.925781 -58.65625 57.90625 -59.96875 C 58.894531 -61.28125 59.390625 -62.945312 59.390625 -64.96875 C 59.390625 -67.863281 58.378906 -70.078125 56.359375 -71.609375 C 54.335938 -73.140625 50.972656 -73.90625 46.265625 -73.90625 C 41.234375 -73.90625 36.445312 -72.785156 31.90625 -70.546875 C 27.375 -68.304688 23.4375 -65.351562 20.09375 -61.6875 L 18.453125 -61.6875 L 8.9375 -76.046875 C 13.53125 -81.128906 19.132812 -85.09375 25.75 -87.9375 C 32.375 -90.78125 39.597656 -92.203125 47.421875 -92.203125 C 59.390625 -92.203125 68.050781 -89.660156 73.40625 -84.578125 C 78.769531 -79.492188 81.453125 -72.273438 81.453125 -62.921875 L 81.453125 -23.625 C 81.453125 -19.582031 83.234375 -17.5625 86.796875 -17.5625 C 88.160156 -17.5625 89.5 -17.804688 90.8125 -18.296875 L 91.953125 -17.96875 L 93.59375 -2.140625 C 92.34375 -1.316406 90.59375 -0.644531 88.34375 -0.125 C 86.101562 0.394531 83.644531 0.65625 80.96875 0.65625 C 75.550781 0.65625 71.320312 -0.378906 68.28125 -2.453125 C 65.25 -4.535156 63.078125 -7.789062 61.765625 -12.21875 L 60.046875 -12.390625 C 55.617188 -2.984375 47.363281 1.71875 35.28125 1.71875 Z M 42.5 -15.265625 C 47.75 -15.265625 51.941406 -17.023438 55.078125 -20.546875 C 58.222656 -24.078125 59.796875 -28.988281 59.796875 -35.28125 L 59.796875 -44.46875 L 58.25 -44.796875 C 56.875 -43.703125 55.078125 -42.785156 52.859375 -42.046875 C 50.648438 -41.304688 47.46875 -40.582031 43.3125 -39.875 C 38.394531 -39.050781 34.851562 -37.640625 32.6875 -35.640625 C 30.53125 -33.648438 29.453125 -30.820312 29.453125 -27.15625 C 29.453125 -23.269531 30.597656 -20.316406 32.890625 -18.296875 C 35.191406 -16.273438 38.394531 -15.265625 42.5 -15.265625 Z M 42.5 -15.265625 "/></g></g></g><g fill="#ff914d" fill-opacity="1"><g transform="translate(487.494039, 496.524194)"><g><path d="M 42.328125 1.71875 C 36.148438 1.71875 30.488281 0.992188 25.34375 -0.453125 C 20.207031 -1.898438 15.820312 -3.894531 12.1875 -6.4375 C 8.550781 -8.976562 5.859375 -11.890625 4.109375 -15.171875 L 16.734375 -28.796875 L 18.453125 -28.796875 C 21.460938 -24.742188 25.019531 -21.707031 29.125 -19.6875 C 33.226562 -17.664062 37.6875 -16.65625 42.5 -16.65625 C 46.925781 -16.65625 50.257812 -17.445312 52.5 -19.03125 C 54.738281 -20.613281 55.859375 -22.882812 55.859375 -25.84375 C 55.859375 -28.132812 55.050781 -30.0625 53.4375 -31.625 C 51.832031 -33.1875 49.222656 -34.40625 45.609375 -35.28125 L 33.640625 -38.140625 C 24.671875 -40.273438 18.117188 -43.539062 13.984375 -47.9375 C 9.859375 -52.34375 7.796875 -57.9375 7.796875 -64.71875 C 7.796875 -70.351562 9.226562 -75.25 12.09375 -79.40625 C 14.96875 -83.5625 19.015625 -86.734375 24.234375 -88.921875 C 29.460938 -91.109375 35.550781 -92.203125 42.5 -92.203125 C 50.644531 -92.203125 57.394531 -91.023438 62.75 -88.671875 C 68.113281 -86.328125 72.300781 -83.1875 75.3125 -79.25 L 63.171875 -66.125 L 61.53125 -66.125 C 59.007812 -68.96875 56.175781 -71.046875 53.03125 -72.359375 C 49.882812 -73.671875 46.375 -74.328125 42.5 -74.328125 C 33.53125 -74.328125 29.046875 -71.535156 29.046875 -65.953125 C 29.046875 -63.597656 29.878906 -61.679688 31.546875 -60.203125 C 33.210938 -58.734375 36.148438 -57.535156 40.359375 -56.609375 L 51.515625 -54.140625 C 60.703125 -52.171875 67.414062 -49.007812 71.65625 -44.65625 C 75.894531 -40.3125 78.015625 -34.476562 78.015625 -27.15625 C 78.015625 -21.414062 76.59375 -16.359375 73.75 -11.984375 C 70.90625 -7.609375 66.800781 -4.226562 61.4375 -1.84375 C 56.082031 0.53125 49.710938 1.71875 42.328125 1.71875 Z M 42.328125 1.71875 "/></g></g></g><g fill="#ff3131" fill-opacity="1"><g transform="translate(433.6757, 1132.59293)"><g><path d="M 15.59375 0 L 15.59375 -119.9375 L 63.734375 -119.9375 C 76.148438 -119.9375 85.515625 -117.078125 91.828125 -111.359375 C 98.148438 -105.640625 101.3125 -97.75 101.3125 -87.6875 C 101.3125 -80.414062 99.460938 -74.457031 95.765625 -69.8125 C 92.078125 -65.164062 86.570312 -61.609375 79.25 -59.140625 L 79.25 -57.421875 C 83.019531 -55.785156 86.066406 -53.351562 88.390625 -50.125 C 90.710938 -46.894531 92.914062 -42.109375 95 -35.765625 L 106.96875 0 L 82.609375 0 L 70.875 -35.84375 C 69.675781 -39.457031 68.320312 -42.257812 66.8125 -44.25 C 65.3125 -46.25 63.398438 -47.695312 61.078125 -48.59375 C 58.753906 -49.5 55.734375 -49.953125 52.015625 -49.953125 L 39.296875 -49.953125 L 39.296875 0 Z M 60.875 -68.75 C 72.351562 -68.75 78.09375 -74.109375 78.09375 -84.828125 C 78.09375 -95.703125 72.351562 -101.140625 60.875 -101.140625 L 39.296875 -101.140625 L 39.296875 -68.75 Z M 60.875 -68.75 "/></g></g></g><g fill="#8c52ff" fill-opacity="1"><g transform="translate(1043.500959, 997.40351)"><g><path d="M 13.046875 0 L 13.046875 -90.484375 L 35.109375 -90.484375 L 35.109375 -77.03125 L 36.828125 -76.703125 C 39.015625 -81.734375 41.882812 -85.421875 45.4375 -87.765625 C 49 -90.117188 53.320312 -91.296875 58.40625 -91.296875 C 63.550781 -91.296875 67.460938 -90.421875 70.140625 -88.671875 L 66.28125 -69.078125 L 64.5625 -68.75 C 63.082031 -69.34375 61.660156 -69.773438 60.296875 -70.046875 C 58.929688 -70.328125 57.265625 -70.46875 55.296875 -70.46875 C 48.953125 -70.46875 44.109375 -68.238281 40.765625 -63.78125 C 37.429688 -59.320312 35.765625 -52.171875 35.765625 -42.328125 L 35.765625 0 Z M 13.046875 0 "/></g></g></g><g clip-path="url(#ab48c61d59)"><g clip-path="url(#147eb43af1)"><path stroke-linecap="butt" transform="matrix(0, 0.75, -0.75, 0, 1489.886281, 196.111106)" fill="none" stroke-linejoin="miter" d="M 847.789432 -0.000583639 L 1695.575964 493.259876 L 1695.575964 1479.775585 L 847.789432 1973.030836 L -0.00230734 1479.775585 L -0.00230734 493.259876 Z M 847.789432 -0.000583639 " stroke="#a6a6a6" stroke-width="50" stroke-opacity="1" stroke-miterlimit="4"/></g></g></svg>